# xmcd CD database file
#
# Track frame offsets:
#	150
#	20244
#	58141
#	79261
#	110526
#	133013
#	154198
#	179369
#	194019
#	213687
#	248396
#	272937
#	302589
#	315011
#
# Disc length: 4542 seconds
#
# Revision: 0
# Processed by: cddbd v1.5.2PL0 Copyright (c) Steve Scherf et al.
# Submitted via: CDex 1.51
#
DISCID=c811bc0e
DTITLE=Buddy Guy - Buddy's Baddest: The Best Of Buddy Guy
DYEAR=1999
DGENRE=Blues
TTITLE0=Damn Right, I've Got The Blues
TTITLE1=Five Long Years
TTITLE2=Mustang Sally
TTITLE3=Rememberin' Stevie
TTITLE4=She's A Superstar
TTITLE5=Feels Like Rain
TTITLE6=She's Nineteen Years Old
TTITLE7=I Smell Trouble
TTITLE8=Someone Else Is Steppin' In
TTITLE9=My Time After Awhile (live)
TTITLE10=Midnight Train
TTITLE11=Miss Ida B
TTITLE12=I Need Your Love So Bad
TTITLE13=Innocent Man
EXTD=YEAR: 1999
EXTT0=
EXTT1=
EXTT2=
EXTT3=
EXTT4=
EXTT5=
EXTT6=
EXTT7=
EXTT8=
EXTT9=
EXTT10=
EXTT11=
EXTT12=
EXTT13=
PLAYORDER=
